<svg width="16" height="15" viewBox="0 0 16 15" fill="none" xmlns="http://www.w3.org/2000/svg">
<path d="M7.45119 0.885341C7.62172 0.371552 8.37828 0.371554 8.54881 0.885341L9.69969 4.35268C9.91341 4.99654 10.5217 5.423 11.1976 5.423H14.9219C15.5023 5.423 15.6908 6.11789 15.2646 6.42102L12.2516 8.56396C11.6984 8.95735 11.4615 9.66065 11.6759 10.3066L12.8268 13.7739C12.9843 14.2484 12.4168 14.729 11.9353 14.3866L8.92226 12.2437C8.37164 11.8521 7.62836 11.8521 7.07774 12.2437L4.0647 14.3866C3.58323 14.729 3.01571 14.2484 3.17321 13.7739L4.32409 10.3066C4.53848 9.66065 4.30157 8.95735 3.74845 8.56396L0.735405 6.42102C0.309196 6.1179 0.497692 5.423 1.07808 5.423H4.80241C5.47828 5.423 6.08659 4.99654 6.30031 4.35268L7.45119 0.885341Z" fill="#FB923C" stroke="#FB923C"/>
</svg>
