<svg width="160" height="210" viewBox="0 0 160 210" fill="none" xmlns="http://www.w3.org/2000/svg">
<rect width="160" height="210" rx="5" fill="white"/>
<path d="M2 0H155.703C156.626 0 157.373 0.74799 157.373 1.67068V206.329C157.373 207.252 156.626 208 155.703 208H6.1767C3.86997 208 2 206.13 2 203.823V0Z" fill="url(#paint0_linear_3_267)"/>
<path d="M138.161 3.34131H154.032V205.494H138.161V3.34131Z" fill="url(#paint1_linear_3_267)"/>
<path d="M2 0H140.667C141.589 0 142.337 0.74799 142.337 1.67068V206.329C142.337 207.252 141.589 208 140.667 208H6.17671C3.86998 208 2 206.13 2 203.823V0Z" fill="url(#paint2_linear_3_267)"/>
<path fill-rule="evenodd" clip-rule="evenodd" d="M16.4166 16.4071V191.593H126.588V16.4071H16.4166ZM14.7085 12.1755C13.2934 12.1755 12.1463 13.3123 12.1463 14.7145V193.285C12.1463 194.688 13.2934 195.824 14.7085 195.824H128.296C129.711 195.824 130.859 194.688 130.859 193.285V14.7145C130.859 13.3123 129.711 12.1755 128.296 12.1755H14.7085Z" fill="url(#paint3_linear_3_267)"/>
<path d="M30.0349 64.9104V74.8635H28.7224V65.9905H23.8142V74.8635H22.4948V64.9104H30.0349ZM33.6032 72.8606L37.0144 67.467H38.2859V74.8635H37.0144V69.47L33.6032 74.8635H32.3454V67.467H33.6032V72.8606ZM41.6902 67.467V74.8635H40.4255V67.467H41.6902ZM46.5437 67.467L43.0368 71.7053H41.2663L41.0749 70.5979H42.5241L45.0056 67.467H46.5437ZM45.1833 74.8635L42.4626 71.5139L43.2761 70.5979L46.7898 74.8635H45.1833ZM47.405 71.2473V71.0901C47.405 70.5569 47.4825 70.0624 47.6374 69.6067C47.7924 69.1464 48.0157 68.7476 48.3073 68.4104C48.599 68.0686 48.9522 67.8043 49.3669 67.6174C49.7816 67.426 50.2465 67.3303 50.7614 67.3303C51.281 67.3303 51.7481 67.426 52.1628 67.6174C52.5821 67.8043 52.9376 68.0686 53.2292 68.4104C53.5254 68.7476 53.751 69.1464 53.906 69.6067C54.0609 70.0624 54.1384 70.5569 54.1384 71.0901V71.2473C54.1384 71.7805 54.0609 72.275 53.906 72.7307C53.751 73.1864 53.5254 73.5852 53.2292 73.927C52.9376 74.2642 52.5844 74.5286 52.1697 74.72C51.7595 74.9068 51.2947 75.0002 50.7751 75.0002C50.2556 75.0002 49.7885 74.9068 49.3738 74.72C48.959 74.5286 48.6036 74.2642 48.3073 73.927C48.0157 73.5852 47.7924 73.1864 47.6374 72.7307C47.4825 72.275 47.405 71.7805 47.405 71.2473ZM48.6697 71.0901V71.2473C48.6697 71.6165 48.7129 71.9651 48.7995 72.2932C48.8861 72.6168 49.016 72.9039 49.1892 73.1545C49.3669 73.4052 49.5879 73.6034 49.8523 73.7493C50.1166 73.8905 50.4242 73.9612 50.7751 73.9612C51.1215 73.9612 51.4245 73.8905 51.6843 73.7493C51.9486 73.6034 52.1674 73.4052 52.3405 73.1545C52.5137 72.9039 52.6436 72.6168 52.7302 72.2932C52.8213 71.9651 52.8669 71.6165 52.8669 71.2473V71.0901C52.8669 70.7255 52.8213 70.3814 52.7302 70.0579C52.6436 69.7297 52.5114 69.4403 52.3337 69.1897C52.1605 68.9345 51.9418 68.734 51.6775 68.5881C51.4177 68.4423 51.1124 68.3694 50.7614 68.3694C50.4151 68.3694 50.1098 68.4423 49.8454 68.5881C49.5857 68.734 49.3669 68.9345 49.1892 69.1897C49.016 69.4403 48.8861 69.7297 48.7995 70.0579C48.7129 70.3814 48.6697 70.7255 48.6697 71.0901ZM59.197 71.6096H56.7702L56.7566 70.5979H58.739C59.1309 70.5979 59.4568 70.5592 59.7165 70.4817C59.9808 70.4042 60.1791 70.288 60.3113 70.1331C60.4434 69.9781 60.5095 69.7867 60.5095 69.5588C60.5095 69.3811 60.4708 69.2262 60.3933 69.094C60.3204 68.9573 60.2087 68.8456 60.0583 68.759C59.9079 68.6679 59.7211 68.6018 59.4978 68.5608C59.279 68.5152 59.0215 68.4924 58.7253 68.4924H57.1052V74.8635H55.8405V67.467H58.7253C59.1947 67.467 59.6163 67.5081 59.99 67.5901C60.3682 67.6721 60.6895 67.7974 60.9538 67.9661C61.2227 68.1301 61.4278 68.3398 61.5691 68.595C61.7103 68.8502 61.781 69.151 61.781 69.4973C61.781 69.7206 61.7354 69.9325 61.6443 70.1331C61.5531 70.3336 61.4187 70.5113 61.2409 70.6663C61.0632 70.8212 60.8445 70.9488 60.5847 71.0491C60.3249 71.1448 60.0264 71.2063 59.6892 71.2336L59.197 71.6096ZM59.197 74.8635H56.3122L56.9411 73.8381H59.197C59.5479 73.8381 59.8396 73.7948 60.072 73.7083C60.3044 73.6171 60.4776 73.4895 60.5915 73.3254C60.71 73.1568 60.7693 72.9563 60.7693 72.7239C60.7693 72.4915 60.71 72.2932 60.5915 72.1292C60.4776 71.9605 60.3044 71.8329 60.072 71.7463C59.8396 71.6552 59.5479 71.6096 59.197 71.6096H57.2761L57.2898 70.5979H59.6892L60.1472 70.9807C60.5528 71.0126 60.8969 71.1129 61.1794 71.2815C61.462 71.4501 61.6762 71.6643 61.822 71.9241C61.9678 72.1793 62.0407 72.4573 62.0407 72.7581C62.0407 73.1044 61.9747 73.4097 61.8425 73.6741C61.7149 73.9384 61.528 74.1594 61.282 74.3372C61.0359 74.5103 60.7374 74.6425 60.3864 74.7336C60.0355 74.8202 59.6391 74.8635 59.197 74.8635ZM68.0974 73.5989V69.7913C68.0974 69.4996 68.0381 69.2467 67.9197 69.0325C67.8057 68.8137 67.6325 68.6451 67.4001 68.5266C67.1677 68.4081 66.8806 68.3489 66.5388 68.3489C66.2198 68.3489 65.9395 68.4036 65.698 68.5129C65.461 68.6223 65.2741 68.7659 65.1374 68.9436C65.0053 69.1213 64.9392 69.3127 64.9392 69.5178H63.6745C63.6745 69.2535 63.7429 68.9915 63.8796 68.7317C64.0163 68.4719 64.2123 68.2372 64.4675 68.0276C64.7273 67.8134 65.0372 67.6448 65.3972 67.5217C65.7618 67.3941 66.1674 67.3303 66.614 67.3303C67.1517 67.3303 67.6257 67.4215 68.0359 67.6038C68.4506 67.7861 68.7741 68.0618 69.0066 68.4309C69.2435 68.7955 69.362 69.2535 69.362 69.8049V73.2502C69.362 73.4963 69.3825 73.7584 69.4236 74.0364C69.4691 74.3144 69.5352 74.5536 69.6218 74.7542V74.8635H68.3025C68.2387 74.7177 68.1885 74.524 68.1521 74.2825C68.1156 74.0364 68.0974 73.8085 68.0974 73.5989ZM68.3161 70.3792L68.3298 71.2678H67.0515C66.6915 71.2678 66.3702 71.2974 66.0876 71.3567C65.8051 71.4114 65.5681 71.4957 65.3767 71.6096C65.1853 71.7236 65.0394 71.8671 64.9392 72.0403C64.8389 72.2089 64.7888 72.4071 64.7888 72.635C64.7888 72.8674 64.8412 73.0793 64.946 73.2708C65.0508 73.4622 65.2081 73.6148 65.4177 73.7288C65.6319 73.8381 65.8939 73.8928 66.2038 73.8928C66.5912 73.8928 66.933 73.8108 67.2292 73.6467C67.5254 73.4827 67.7601 73.2821 67.9333 73.0452C68.1111 72.8082 68.2068 72.578 68.2204 72.3547L68.7605 72.9631C68.7286 73.1545 68.642 73.3665 68.5007 73.5989C68.3594 73.8313 68.1703 74.0546 67.9333 74.2688C67.7009 74.4784 67.4229 74.6539 67.0993 74.7952C66.7803 74.9319 66.4203 75.0002 66.0193 75.0002C65.518 75.0002 65.0782 74.9023 64.6999 74.7063C64.3262 74.5103 64.0346 74.2483 63.8249 73.9202C63.6198 73.5875 63.5173 73.2161 63.5173 72.8059C63.5173 72.4094 63.5948 72.0608 63.7497 71.76C63.9047 71.4547 64.128 71.2017 64.4197 71.0012C64.7113 70.7961 65.0622 70.6412 65.4724 70.5364C65.8825 70.4316 66.3405 70.3792 66.8464 70.3792H68.3161ZM72.8484 71.3362H74.2155L72.0759 74.8635H70.7087L72.8484 71.3362ZM73.9079 67.467H76.9978V74.8635H75.7331V68.4924H73.9079C73.5479 68.4924 73.254 68.554 73.0261 68.677C72.7982 68.7955 72.6319 68.9504 72.5271 69.1418C72.4223 69.3333 72.3698 69.5315 72.3698 69.7366C72.3698 69.9371 72.4177 70.1308 72.5134 70.3176C72.6091 70.4999 72.7595 70.6503 72.9646 70.7688C73.1697 70.8873 73.434 70.9465 73.7575 70.9465H76.0749V71.9856H73.7575C73.3337 71.9856 72.9577 71.9286 72.6296 71.8147C72.3015 71.7008 72.0235 71.5435 71.7956 71.343C71.5678 71.1379 71.3946 70.8987 71.2761 70.6252C71.1576 70.3472 71.0984 70.0465 71.0984 69.7229C71.0984 69.3993 71.1599 69.1008 71.2829 68.8274C71.4105 68.554 71.5928 68.3147 71.8298 68.1096C72.0713 67.9045 72.3653 67.7473 72.7116 67.6379C73.0626 67.524 73.4613 67.467 73.9079 67.467ZM90.5261 73.7903V74.8635H82.9929V73.7903H90.5261ZM83.2048 73.7903V77.3108H81.8991L81.8923 73.7903H83.2048ZM91.6745 73.7903L91.6609 77.304H90.3552V73.7903H91.6745ZM89.2341 64.9104V65.9905H84.8728V64.9104H89.2341ZM90.3689 64.9104V74.8635H89.0564V64.9104H90.3689ZM84.4216 64.9104H85.7409L85.5359 68.9163C85.5085 69.5178 85.4516 70.0738 85.365 70.5842C85.2784 71.0901 85.1713 71.5527 85.0437 71.9719C84.9161 72.3912 84.7702 72.7672 84.6062 73.0999C84.4421 73.428 84.2667 73.7128 84.0798 73.9543C83.893 74.1913 83.697 74.3873 83.4919 74.5422C83.2914 74.6926 83.0886 74.7997 82.8835 74.8635H82.282V73.7903H82.7058C82.8243 73.6627 82.9587 73.4781 83.1091 73.2366C83.2641 72.995 83.4167 72.6829 83.5671 72.3C83.7221 71.9127 83.8565 71.441 83.9704 70.885C84.0889 70.329 84.1687 69.6728 84.2097 68.9163L84.4216 64.9104ZM97.3962 73.5989V69.7913C97.3962 69.4996 97.337 69.2467 97.2185 69.0325C97.1045 68.8137 96.9314 68.6451 96.6989 68.5266C96.4665 68.4081 96.1794 68.3489 95.8376 68.3489C95.5186 68.3489 95.2383 68.4036 94.9968 68.5129C94.7598 68.6223 94.573 68.7659 94.4363 68.9436C94.3041 69.1213 94.238 69.3127 94.238 69.5178H92.9734C92.9734 69.2535 93.0417 68.9915 93.1784 68.7317C93.3152 68.4719 93.5111 68.2372 93.7663 68.0276C94.0261 67.8134 94.336 67.6448 94.696 67.5217C95.0606 67.3941 95.4662 67.3303 95.9128 67.3303C96.4506 67.3303 96.9245 67.4215 97.3347 67.6038C97.7494 67.7861 98.073 68.0618 98.3054 68.4309C98.5424 68.7955 98.6609 69.2535 98.6609 69.8049V73.2502C98.6609 73.4963 98.6814 73.7584 98.7224 74.0364C98.768 74.3144 98.834 74.5536 98.9206 74.7542V74.8635H97.6013C97.5375 74.7177 97.4874 74.524 97.4509 74.2825C97.4144 74.0364 97.3962 73.8085 97.3962 73.5989ZM97.615 70.3792L97.6286 71.2678H96.3503C95.9903 71.2678 95.669 71.2974 95.3864 71.3567C95.1039 71.4114 94.8669 71.4957 94.6755 71.6096C94.4841 71.7236 94.3383 71.8671 94.238 72.0403C94.1377 72.2089 94.0876 72.4071 94.0876 72.635C94.0876 72.8674 94.14 73.0793 94.2448 73.2708C94.3497 73.4622 94.5069 73.6148 94.7165 73.7288C94.9307 73.8381 95.1928 73.8928 95.5027 73.8928C95.89 73.8928 96.2318 73.8108 96.528 73.6467C96.8243 73.4827 97.059 73.2821 97.2322 73.0452C97.4099 72.8082 97.5056 72.578 97.5193 72.3547L98.0593 72.9631C98.0274 73.1545 97.9408 73.3665 97.7995 73.5989C97.6583 73.8313 97.4691 74.0546 97.2322 74.2688C96.9997 74.4784 96.7217 74.6539 96.3982 74.7952C96.0792 74.9319 95.7191 75.0002 95.3181 75.0002C94.8168 75.0002 94.377 74.9023 93.9988 74.7063C93.6251 74.5103 93.3334 74.2483 93.1238 73.9202C92.9187 73.5875 92.8161 73.2161 92.8161 72.8059C92.8161 72.4094 92.8936 72.0608 93.0486 71.76C93.2035 71.4547 93.4268 71.2017 93.7185 71.0012C94.0101 70.7961 94.3611 70.6412 94.7712 70.5364C95.1814 70.4316 95.6394 70.3792 96.1452 70.3792H97.615ZM104.902 73.1819L107.418 67.467H108.634L105.34 74.8635H104.465L101.183 67.467H102.4L104.902 73.1819ZM102.031 67.467V74.8635H100.766V67.467H102.031ZM107.732 74.8635V67.467H109.004V74.8635H107.732ZM115.402 73.5989V69.7913C115.402 69.4996 115.343 69.2467 115.224 69.0325C115.11 68.8137 114.937 68.6451 114.705 68.5266C114.472 68.4081 114.185 68.3489 113.843 68.3489C113.524 68.3489 113.244 68.4036 113.003 68.5129C112.766 68.6223 112.579 68.7659 112.442 68.9436C112.31 69.1213 112.244 69.3127 112.244 69.5178H110.979C110.979 69.2535 111.048 68.9915 111.184 68.7317C111.321 68.4719 111.517 68.2372 111.772 68.0276C112.032 67.8134 112.342 67.6448 112.702 67.5217C113.066 67.3941 113.472 67.3303 113.919 67.3303C114.456 67.3303 114.93 67.4215 115.341 67.6038C115.755 67.7861 116.079 68.0618 116.311 68.4309C116.548 68.7955 116.667 69.2535 116.667 69.8049V73.2502C116.667 73.4963 116.687 73.7584 116.728 74.0364C116.774 74.3144 116.84 74.5536 116.926 74.7542V74.8635H115.607C115.543 74.7177 115.493 74.524 115.457 74.2825C115.42 74.0364 115.402 73.8085 115.402 73.5989ZM115.621 70.3792L115.634 71.2678H114.356C113.996 71.2678 113.675 71.2974 113.392 71.3567C113.11 71.4114 112.873 71.4957 112.681 71.6096C112.49 71.7236 112.344 71.8671 112.244 72.0403C112.144 72.2089 112.093 72.4071 112.093 72.635C112.093 72.8674 112.146 73.0793 112.251 73.2708C112.356 73.4622 112.513 73.6148 112.722 73.7288C112.937 73.8381 113.199 73.8928 113.509 73.8928C113.896 73.8928 114.238 73.8108 114.534 73.6467C114.83 73.4827 115.065 73.2821 115.238 73.0452C115.416 72.8082 115.511 72.578 115.525 72.3547L116.065 72.9631C116.033 73.1545 115.947 73.3665 115.805 73.5989C115.664 73.8313 115.475 74.0546 115.238 74.2688C115.006 74.4784 114.728 74.6539 114.404 74.7952C114.085 74.9319 113.725 75.0002 113.324 75.0002C112.823 75.0002 112.383 74.9023 112.005 74.7063C111.631 74.5103 111.339 74.2483 111.13 73.9202C110.925 73.5875 110.822 73.2161 110.822 72.8059C110.822 72.4094 110.899 72.0608 111.054 71.76C111.209 71.4547 111.433 71.2017 111.724 71.0012C112.016 70.7961 112.367 70.6412 112.777 70.5364C113.187 70.4316 113.645 70.3792 114.151 70.3792H115.621Z" fill="#999999"/>
<defs>
<linearGradient id="paint0_linear_3_267" x1="171.157" y1="-64.3213" x2="124.795" y2="201.317" gradientUnits="userSpaceOnUse">
<stop stop-color="#DADADA"/>
<stop offset="1" stop-color="#B6B6B6"/>
</linearGradient>
<linearGradient id="paint1_linear_3_267" x1="154.032" y1="81.4457" x2="140.667" y2="81.4457" gradientUnits="userSpaceOnUse">
<stop stop-color="white"/>
<stop offset="0.161458" stop-color="#E1E1E1"/>
<stop offset="0.3125" stop-color="white"/>
<stop offset="0.463542" stop-color="#D2D2D2"/>
<stop offset="0.588542" stop-color="white"/>
<stop offset="0.734375" stop-color="#E2E1E1"/>
<stop offset="0.901042" stop-color="white"/>
<stop offset="1" stop-color="white"/>
</linearGradient>
<linearGradient id="paint2_linear_3_267" x1="166.145" y1="-48.0321" x2="18.7068" y2="208" gradientUnits="userSpaceOnUse">
<stop stop-color="#DDDCDC"/>
<stop offset="1" stop-color="#B7B7B7"/>
</linearGradient>
<linearGradient id="paint3_linear_3_267" x1="123.116" y1="16.1099" x2="14.0594" y2="188.165" gradientUnits="userSpaceOnUse">
<stop stop-color="#C5C5C5"/>
<stop offset="1" stop-color="#B0B0B0"/>
</linearGradient>
</defs>
</svg>
